<mxfile host="Electron" agent="Mozilla/5.0 (Macintosh; Intel Mac OS X 10_15_7) AppleWebKit/537.36 (KHTML, like Gecko) draw.io/27.0.5 Chrome/134.0.6998.205 Electron/35.3.0 Safari/537.36" version="27.0.5">
  <diagram name="Page-1" id="e9M_LCWM8htkTA8dqFIB">
    <mxGraphModel dx="946" dy="679" grid="1" gridSize="10" guides="1" tooltips="1" connect="1" arrows="1" fold="1" page="1" pageScale="1" pageWidth="850" pageHeight="1100" math="0" shadow="0">
      <root>
        <mxCell id="0" />
        <mxCell id="1" parent="0" />
        <mxCell id="h5w4guH996BRRDDJ7Wcj-13" style="edgeStyle=orthogonalEdgeStyle;rounded=0;orthogonalLoop=1;jettySize=auto;html=1;entryX=0.25;entryY=1;entryDx=0;entryDy=0;" edge="1" parent="1" source="h5w4guH996BRRDDJ7Wcj-1" target="h5w4guH996BRRDDJ7Wcj-11">
          <mxGeometry relative="1" as="geometry" />
        </mxCell>
        <mxCell id="h5w4guH996BRRDDJ7Wcj-1" value="&lt;font style=&quot;font-size: 24px;&quot;&gt;Gasoline Car&lt;/font&gt;&lt;div&gt;&lt;font style=&quot;font-size: 24px;&quot;&gt;燃油车&lt;/font&gt;&lt;/div&gt;" style="rounded=0;whiteSpace=wrap;html=1;shadow=0;sketch=1;curveFitting=1;jiggle=2;fillColor=#f8cecc;strokeColor=#b85450;" vertex="1" parent="1">
          <mxGeometry x="80" y="360" width="240" height="120" as="geometry" />
        </mxCell>
        <mxCell id="h5w4guH996BRRDDJ7Wcj-2" value="&lt;font style=&quot;font-size: 18px;&quot;&gt;座位数 int numOfSeat&lt;/font&gt;" style="rounded=0;whiteSpace=wrap;html=1;fillColor=#fff2cc;strokeColor=#d6b656;sketch=1;curveFitting=1;jiggle=2;" vertex="1" parent="1">
          <mxGeometry x="80" y="480" width="240" height="40" as="geometry" />
        </mxCell>
        <mxCell id="h5w4guH996BRRDDJ7Wcj-3" value="&lt;span style=&quot;font-size: 18px;&quot;&gt;排量 float&amp;nbsp;&lt;/span&gt;&lt;span style=&quot;font-size: 18px; background-color: transparent; color: light-dark(rgb(0, 0, 0), rgb(255, 255, 255));&quot;&gt;displacement&lt;/span&gt;" style="rounded=0;whiteSpace=wrap;html=1;fillColor=#f8cecc;strokeColor=#b85450;sketch=1;curveFitting=1;jiggle=2;" vertex="1" parent="1">
          <mxGeometry x="80" y="560" width="240" height="40" as="geometry" />
        </mxCell>
        <mxCell id="h5w4guH996BRRDDJ7Wcj-4" value="&lt;span style=&quot;font-size: 18px;&quot;&gt;门数 int&amp;nbsp;&lt;/span&gt;&lt;span style=&quot;font-size: 18px; background-color: transparent; color: light-dark(rgb(0, 0, 0), rgb(255, 255, 255));&quot;&gt;numOfDoors&lt;/span&gt;" style="rounded=0;whiteSpace=wrap;html=1;fillColor=#fff2cc;strokeColor=#d6b656;sketch=1;curveFitting=1;jiggle=2;" vertex="1" parent="1">
          <mxGeometry x="80" y="520" width="240" height="40" as="geometry" />
        </mxCell>
        <mxCell id="h5w4guH996BRRDDJ7Wcj-14" style="edgeStyle=orthogonalEdgeStyle;rounded=0;orthogonalLoop=1;jettySize=auto;html=1;entryX=0.75;entryY=1;entryDx=0;entryDy=0;" edge="1" parent="1" source="h5w4guH996BRRDDJ7Wcj-5" target="h5w4guH996BRRDDJ7Wcj-11">
          <mxGeometry relative="1" as="geometry" />
        </mxCell>
        <mxCell id="h5w4guH996BRRDDJ7Wcj-5" value="&lt;font style=&quot;font-size: 24px;&quot;&gt;Electric Car&lt;/font&gt;&lt;div&gt;&lt;font style=&quot;font-size: 24px;&quot;&gt;电动汽车&lt;/font&gt;&lt;/div&gt;" style="rounded=0;whiteSpace=wrap;html=1;shadow=0;sketch=1;curveFitting=1;jiggle=2;fillColor=#d5e8d4;strokeColor=#82b366;" vertex="1" parent="1">
          <mxGeometry x="480" y="360" width="240" height="120" as="geometry" />
        </mxCell>
        <mxCell id="h5w4guH996BRRDDJ7Wcj-6" value="&lt;font style=&quot;font-size: 18px;&quot;&gt;座位数 int numOfSeat&lt;/font&gt;" style="rounded=0;whiteSpace=wrap;html=1;fillColor=#fff2cc;strokeColor=#d6b656;sketch=1;curveFitting=1;jiggle=2;" vertex="1" parent="1">
          <mxGeometry x="480" y="480" width="240" height="40" as="geometry" />
        </mxCell>
        <mxCell id="h5w4guH996BRRDDJ7Wcj-7" value="&lt;span style=&quot;font-size: 18px;&quot;&gt;纯电续航 int cltc&lt;/span&gt;" style="rounded=0;whiteSpace=wrap;html=1;fillColor=#d5e8d4;strokeColor=#82b366;sketch=1;curveFitting=1;jiggle=2;" vertex="1" parent="1">
          <mxGeometry x="480" y="560" width="240" height="40" as="geometry" />
        </mxCell>
        <mxCell id="h5w4guH996BRRDDJ7Wcj-8" value="&lt;span style=&quot;font-size: 18px;&quot;&gt;门数 int&amp;nbsp;&lt;/span&gt;&lt;span style=&quot;font-size: 18px; background-color: transparent; color: light-dark(rgb(0, 0, 0), rgb(255, 255, 255));&quot;&gt;numOfDoors&lt;/span&gt;" style="rounded=0;whiteSpace=wrap;html=1;fillColor=#fff2cc;strokeColor=#d6b656;sketch=1;curveFitting=1;jiggle=2;" vertex="1" parent="1">
          <mxGeometry x="480" y="520" width="240" height="40" as="geometry" />
        </mxCell>
        <mxCell id="h5w4guH996BRRDDJ7Wcj-9" value="&lt;font style=&quot;font-size: 24px;&quot;&gt;Car&lt;/font&gt;&lt;div&gt;&lt;font style=&quot;font-size: 24px;&quot;&gt;汽车&lt;/font&gt;&lt;/div&gt;" style="rounded=0;whiteSpace=wrap;html=1;shadow=0;sketch=1;curveFitting=1;jiggle=2;fillColor=#fff2cc;strokeColor=#d6b656;" vertex="1" parent="1">
          <mxGeometry x="280" y="40" width="240" height="120" as="geometry" />
        </mxCell>
        <mxCell id="h5w4guH996BRRDDJ7Wcj-10" value="&lt;font style=&quot;font-size: 18px;&quot;&gt;座位数 int numOfSeat&lt;/font&gt;" style="rounded=0;whiteSpace=wrap;html=1;fillColor=#fff2cc;strokeColor=#d6b656;sketch=1;curveFitting=1;jiggle=2;" vertex="1" parent="1">
          <mxGeometry x="280" y="160" width="240" height="40" as="geometry" />
        </mxCell>
        <mxCell id="h5w4guH996BRRDDJ7Wcj-11" value="&lt;span style=&quot;font-size: 18px;&quot;&gt;门数 int&amp;nbsp;&lt;/span&gt;&lt;span style=&quot;font-size: 18px; background-color: transparent; color: light-dark(rgb(0, 0, 0), rgb(255, 255, 255));&quot;&gt;numOfDoors&lt;/span&gt;" style="rounded=0;whiteSpace=wrap;html=1;fillColor=#fff2cc;strokeColor=#d6b656;sketch=1;curveFitting=1;jiggle=2;" vertex="1" parent="1">
          <mxGeometry x="280" y="200" width="240" height="40" as="geometry" />
        </mxCell>
      </root>
    </mxGraphModel>
  </diagram>
</mxfile>
